<svg width="100" height="100" viewBox="0 0 100 100" fill="none" xmlns="http://www.w3.org/2000/svg">
<path d="M34 34.9882L28.0002 39.3506L20 44.1992V37.3272L28.0002 31.5396V36.1214L31.4986 33.2994V29.0222L34 27.1992V34.9882Z" fill="black"/>
<path d="M55 29.1089V36.964L46.6356 41.8737L40.3627 46.2895L32 51.1992V42.8534L40.3627 37.9437V43.1459L46.6356 38.7285V24.1992L55 29.1089Z" fill="black"/>
<path d="M55 93.2001L49.5706 97.1992L46.0564 94.6325L43.0437 90.2004H40.0325L32 84.1994V54.6987L40.0325 49.6987V87.1991H43.1529L46.0564 90.6985V46.1993L55 41.1992V93.2001Z" fill="black"/>
<path d="M80 37.2486V47.0751L72.0008 41.9725L59 53.1992V42.4343L71.9992 31.2092V31.1992L80 37.2486Z" fill="black"/>
<path d="M20 75.1429V46.1909L28 41.1992V81.1992L20 75.1429Z" fill="black"/>
<path d="M71.9992 44.1992L80 49.2001V75.6807L71.9992 81.6094V48.2005L66.9992 52.7V82.705L70.4995 82.6968L59 91.1992V55.2004L66.9992 48.7003L71.9992 44.1992Z" fill="black"/>
<path d="M48.5265 8.25601L49.7109 3.32617L50.7369 3.54914L49.32 9.44249L53.7897 5.19785L56.0221 7.31854L51.6029 11.516L57.7119 10.3767L57.9141 11.3581L53.4073 12.1996H58V13.1989H51.6855L56.9487 18.1987L54.7147 20.3194L48.5265 14.4407V22.1992H47.4735V17.1392L46.2891 22.0723L45.2614 21.8493L46.6008 16.2684L41.88 20.754L39.6477 18.6316L44.7105 13.8206L38.2881 15.0217L38.0859 14.0403L42.5927 13.1989H38V12.1996H46.1661L40.5727 6.88562L42.805 4.76492L47.4735 9.19836V3.19922H48.5265V8.25601Z" fill="black"/>
</svg>
