<svg width="22" height="40" viewBox="0 0 22 40" fill="none" xmlns="http://www.w3.org/2000/svg">
<rect x="9.71924" y="17.1953" width="1.86908" height="5.60724" fill="#2A2A2A"/>
<rect x="19.4385" y="15.3281" width="1.86908" height="9.34541" fill="#2A2A2A"/>
<rect y="15.3281" width="1.86908" height="9.34541" fill="#2A2A2A"/>
<rect width="1.86908" height="11.5883" transform="matrix(-1 0 0 1 11.5884 0)" fill="#2A2A2A"/>
<rect width="1.86908" height="11.5883" transform="matrix(-1 0 0 1 11.5884 28.4121)" fill="#2A2A2A"/>
<rect width="1.86908" height="11.5883" transform="matrix(-1 0 0 1 14.7656 3.73828)" fill="#2A2A2A"/>
<rect width="1.86908" height="11.5883" transform="matrix(-1 0 0 1 14.7656 24.6738)" fill="#2A2A2A"/>
<rect width="1.86908" height="11.5883" transform="matrix(-1 0 0 1 8.41064 3.73828)" fill="#2A2A2A"/>
<rect width="1.86908" height="11.5883" transform="matrix(-1 0 0 1 8.41064 24.6738)" fill="#2A2A2A"/>
<rect width="1.86908" height="10.4669" transform="matrix(-1 0 0 1 17.9434 8.03711)" fill="#2A2A2A"/>
<rect width="1.86908" height="9.71922" transform="matrix(-1 0 0 1 17.9434 22.2402)" fill="#2A2A2A"/>
<rect width="1.86908" height="10.4669" transform="matrix(-1 0 0 1 5.2334 8.03711)" fill="#2A2A2A"/>
<rect width="1.86908" height="9.71922" transform="matrix(-1 0 0 1 5.2334 22.2402)" fill="#2A2A2A"/>
</svg>
